HIERARCHY
ROOT Hips
{
	OFFSET 0.000000 97.167313 0.000000
	CHANNELS 6 Xposition Yposition Zposition Xrotation Yrotation Zrotation
	JOINT Spine
	{
		OFFSET 0.000000 13.784798 0.064400
		CHANNELS 3 Xrotation Yrotation Zrotation
		JOINT Spine1
		{
			OFFSET 0.000000 12.037903 0.404700
			CHANNELS 3 Xrotation Yrotation Zrotation
			JOINT Spine2
			{
				OFFSET 0.000000 17.795601 0.420200
				CHANNELS 3 Xrotation Yrotation Zrotation
				JOINT Neck
				{
					OFFSET 0.000000 39.131302 11.954600
					CHANNELS 3 Xrotation Yrotation Zrotation
					JOINT Head
					{
						OFFSET 0.000000 14.456192 15.627699
						CHANNELS 3 Xrotation Yrotation Zrotation
						JOINT HeadTop_End
						{
							OFFSET 0.000000 15.703506 7.603401
							CHANNELS 3 Xrotation Yrotation Zrotation
							End Site
							{
								OFFSET 0.000000 17.447403 0.000000
							}
						}
					}
				}
				JOINT LeftShoulder
				{
					OFFSET 17.399500 24.608795 1.168800
					CHANNELS 3 Xrotation Yrotation Zrotation
					JOINT LeftArm
					{
						OFFSET 18.980635 5.765305 1.818600
						CHANNELS 3 Xrotation Yrotation Zrotation
						JOINT LeftForeArm
						{
							OFFSET 49.290169 0.000000 0.000000
							CHANNELS 3 Xrotation Yrotation Zrotation
							JOINT LeftHand
							{
								OFFSET 31.562012 0.000000 0.000000
								CHANNELS 3 Xrotation Yrotation Zrotation
								JOINT LeftHandThumb1
								{
									OFFSET 6.133995 -4.388519 7.076070
									CHANNELS 3 Xrotation Yrotation Zrotation
									JOINT LeftHandThumb2
									{
										OFFSET 6.037666 -3.485840 3.485847
										CHANNELS 3 Xrotation Yrotation Zrotation
										JOINT LeftHandThumb3
										{
											OFFSET 6.496506 -3.750763 3.750761
											CHANNELS 3 Xrotation Yrotation Zrotation
											JOINT LeftHandThumb4
											{
												OFFSET 5.616882 -3.242905 3.242910
												CHANNELS 3 Xrotation Yrotation Zrotation
												End Site
												{
													OFFSET -1.254608 7.132141 0.375429
												}
											}
										}
									}
								}
								JOINT LeftHandPinky1
								{
									OFFSET 18.920792 -0.453171 -11.426712
									CHANNELS 3 Xrotation Yrotation Zrotation
									JOINT LeftHandPinky2
									{
										OFFSET 4.919586 0.000000 0.000000
										CHANNELS 3 Xrotation Yrotation Zrotation
										JOINT LeftHandPinky3
										{
											OFFSET 5.233047 0.000000 0.000000
											CHANNELS 3 Xrotation Yrotation Zrotation
											JOINT LeftHandPinky4
											{
												OFFSET 5.571716 0.000000 0.000000
												CHANNELS 3 Xrotation Yrotation Zrotation
												End Site
												{
													OFFSET -3.459808 4.342407 -0.466164
												}
											}
										}
									}
								}
								JOINT LeftHandRing1
								{
									OFFSET 22.726120 -0.094986 -6.500475
									CHANNELS 3 Xrotation Yrotation Zrotation
									JOINT LeftHandRing2
									{
										OFFSET 6.408615 0.000000 0.000000
										CHANNELS 3 Xrotation Yrotation Zrotation
										JOINT LeftHandRing3
										{
											OFFSET 6.150223 0.000000 0.000000
											CHANNELS 3 Xrotation Yrotation Zrotation
											JOINT LeftHandRing4
											{
												OFFSET 6.145386 0.000000 0.000000
												CHANNELS 3 Xrotation Yrotation Zrotation
												End Site
												{
													OFFSET -3.671402 4.923981 -0.202372
												}
											}
										}
									}
								}
								JOINT LeftHandMiddle1
								{
									OFFSET 23.373947 0.000000 0.000001
									CHANNELS 3 Xrotation Yrotation Zrotation
									JOINT LeftHandMiddle2
									{
										OFFSET 6.996567 0.000000 0.000000
										CHANNELS 3 Xrotation Yrotation Zrotation
										JOINT LeftHandMiddle3
										{
											OFFSET 7.015945 0.000000 0.000000
											CHANNELS 3 Xrotation Yrotation Zrotation
											JOINT LeftHandMiddle4
											{
												OFFSET 7.721573 0.000000 0.000000
												CHANNELS 3 Xrotation Yrotation Zrotation
												End Site
												{
													OFFSET -4.651108 6.158463 0.251582
												}
											}
										}
									}
								}
								JOINT LeftHandIndex1
								{
									OFFSET 21.310577 -0.490082 6.209344
									CHANNELS 3 Xrotation Yrotation Zrotation
									JOINT LeftHandIndex2
									{
										OFFSET 7.536453 0.000000 0.000000
										CHANNELS 3 Xrotation Yrotation Zrotation
										JOINT LeftHandIndex3
										{
											OFFSET 7.512344 0.000000 0.000000
											CHANNELS 3 Xrotation Yrotation Zrotation
											JOINT LeftHandIndex4
											{
												OFFSET 10.212402 0.000000 0.000001
												CHANNELS 3 Xrotation Yrotation Zrotation
												End Site
												{
													OFFSET -5.180801 8.690506 1.388433
												}
											}
										}
									}
								}
							}
						}
					}
				}
				JOINT RightShoulder
				{
					OFFSET -17.399500 24.608795 1.168800
					CHANNELS 3 Xrotation Yrotation Zrotation
					JOINT RightArm
					{
						OFFSET -18.980635 5.765305 1.818600
						CHANNELS 3 Xrotation Yrotation Zrotation
						JOINT RightForeArm
						{
							OFFSET -49.290169 0.000000 0.000000
							CHANNELS 3 Xrotation Yrotation Zrotation
							JOINT RightHand
							{
								OFFSET -31.562012 0.000000 0.000000
								CHANNELS 3 Xrotation Yrotation Zrotation
								JOINT RightHandThumb1
								{
									OFFSET -6.133995 -4.388519 7.076070
									CHANNELS 3 Xrotation Yrotation Zrotation
									JOINT RightHandThumb2
									{
										OFFSET -6.037666 -3.485840 3.485847
										CHANNELS 3 Xrotation Yrotation Zrotation
										JOINT RightHandThumb3
										{
											OFFSET -6.496506 -3.750763 3.750761
											CHANNELS 3 Xrotation Yrotation Zrotation
											JOINT RightHandThumb4
											{
												OFFSET -5.616882 -3.242905 3.242910
												CHANNELS 3 Xrotation Yrotation Zrotation
												End Site
												{
													OFFSET 1.254608 7.132141 0.375429
												}
											}
										}
									}
								}
								JOINT RightHandIndex1
								{
									OFFSET -21.310577 -0.490082 6.209344
									CHANNELS 3 Xrotation Yrotation Zrotation
									JOINT RightHandIndex2
									{
										OFFSET -7.536453 0.000000 0.000000
										CHANNELS 3 Xrotation Yrotation Zrotation
										JOINT RightHandIndex3
										{
											OFFSET -7.512344 0.000000 0.000000
											CHANNELS 3 Xrotation Yrotation Zrotation
											JOINT RightHandIndex4
											{
												OFFSET -10.212402 0.000000 0.000001
												CHANNELS 3 Xrotation Yrotation Zrotation
												End Site
												{
													OFFSET 5.180801 8.690506 1.388433
												}
											}
										}
									}
								}
								JOINT RightHandMiddle1
								{
									OFFSET -23.373947 0.000000 0.000001
									CHANNELS 3 Xrotation Yrotation Zrotation
									JOINT RightHandMiddle2
									{
										OFFSET -6.996567 0.000000 0.000000
										CHANNELS 3 Xrotation Yrotation Zrotation
										JOINT RightHandMiddle3
										{
											OFFSET -7.015945 0.000000 0.000000
											CHANNELS 3 Xrotation Yrotation Zrotation
											JOINT RightHandMiddle4
											{
												OFFSET -7.721573 0.000000 0.000000
												CHANNELS 3 Xrotation Yrotation Zrotation
												End Site
												{
													OFFSET 4.651108 6.158463 0.251582
												}
											}
										}
									}
								}
								JOINT RightHandRing1
								{
									OFFSET -22.726120 -0.094986 -6.500475
									CHANNELS 3 Xrotation Yrotation Zrotation
									JOINT RightHandRing2
									{
										OFFSET -6.408615 0.000000 0.000000
										CHANNELS 3 Xrotation Yrotation Zrotation
										JOINT RightHandRing3
										{
											OFFSET -6.150223 0.000000 0.000000
											CHANNELS 3 Xrotation Yrotation Zrotation
											JOINT RightHandRing4
											{
												OFFSET -6.145386 0.000000 0.000000
												CHANNELS 3 Xrotation Yrotation Zrotation
												End Site
												{
													OFFSET 3.671402 4.923981 -0.202372
												}
											}
										}
									}
								}
								JOINT RightHandPinky1
								{
									OFFSET -18.920792 -0.453171 -11.426712
									CHANNELS 3 Xrotation Yrotation Zrotation
									JOINT RightHandPinky2
									{
										OFFSET -4.919586 0.000000 0.000000
										CHANNELS 3 Xrotation Yrotation Zrotation
										JOINT RightHandPinky3
										{
											OFFSET -5.233047 0.000000 0.000000
											CHANNELS 3 Xrotation Yrotation Zrotation
											JOINT RightHandPinky4
											{
												OFFSET -5.571716 0.000000 0.000000
												CHANNELS 3 Xrotation Yrotation Zrotation
												End Site
												{
													OFFSET 3.459808 4.342407 -0.466164
												}
											}
										}
									}
								}
							}
						}
					}
				}
			}
		}
	}
	JOINT LeftUpLeg
	{
		OFFSET 19.899099 -7.885101 -3.429500
		CHANNELS 3 Xrotation Yrotation Zrotation
		JOINT LeftLeg
		{
			OFFSET 1.745560 -36.997807 10.304700
			CHANNELS 3 Xrotation Yrotation Zrotation
			JOINT LeftFoot
			{
				OFFSET -1.745558 -29.803308 -13.615400
				CHANNELS 3 Xrotation Yrotation Zrotation
				JOINT LeftToeBase
				{
					OFFSET 1.181900 -18.539904 15.226099
					CHANNELS 3 Xrotation Yrotation Zrotation
					JOINT LeftToe_End
					{
						OFFSET -0.863701 1.402801 16.534700
						CHANNELS 3 Xrotation Yrotation Zrotation
						End Site
						{
							OFFSET 0.000000 16.616566 0.000000
						}
					}
				}
			}
		}
	}
	JOINT RightUpLeg
	{
		OFFSET -19.899099 -7.885101 -3.429500
		CHANNELS 3 Xrotation Yrotation Zrotation
		JOINT RightLeg
		{
			OFFSET -1.745560 -36.997807 10.304700
			CHANNELS 3 Xrotation Yrotation Zrotation
			JOINT RightFoot
			{
				OFFSET 1.745558 -29.803308 -13.615400
				CHANNELS 3 Xrotation Yrotation Zrotation
				JOINT RightToeBase
				{
					OFFSET -1.181900 -18.539904 15.226099
					CHANNELS 3 Xrotation Yrotation Zrotation
					JOINT RightToe_End
					{
						OFFSET 0.863701 1.402801 16.534700
						CHANNELS 3 Xrotation Yrotation Zrotation
						End Site
						{
							OFFSET 0.000000 16.616566 0.000000
						}
					}
				}
			}
		}
	}
}
MOTION
Frames: 4
Frame Time: 0.033333
1.612485 86.064308 165.738098 -3.516260 9.212190 -7.673795 3.227312 -3.662130 4.873335 2.793946 -2.562200 2.436856 2.741416 -2.700903 2.381687 0.998821 -0.500788 0.338365 -6.217109 -2.615652 -2.603002 -0.000000 0.000000 0.000000 2.227946 -7.967847 -11.510548 6.166542 -37.178950 -45.463860 0.000013 -27.411914 0.000008 -37.704027 -15.977491 17.464377 -6.000711 -6.126817 4.616759 7.230352 21.960025 2.178871 -5.596076 12.091059 16.242868 0.000001 -0.000000 -0.000002 4.243226 17.490856 -25.349439 0.745291 2.861410 -29.192529 0.087713 1.010998 -9.916110 0.000002 -0.000002 -0.000004 2.890019 10.489004 -21.682939 0.280406 1.792432 -17.780854 0.087723 1.011070 -9.916819 -0.000001 0.000004 0.000004 0.422580 4.377980 -20.122325 0.279843 1.790693 -17.763041 0.087709 1.011001 -9.916092 0.000000 -0.000000 0.000004 -2.034553 -4.751711 -15.395209 0.279845 1.790694 -17.763024 0.087707 1.010999 -9.916115 -0.000001 0.000001 0.000001 3.256013 -1.131618 13.974563 0.128197 -5.073310 60.941270 0.000001 8.495924 0.000013 3.442929 -1.437713 3.314813 -6.901941 8.181170 -4.018452 7.464522 -23.792670 -2.837967 -4.037341 -18.149551 -17.326559 0.000001 0.000001 0.000001 -1.992636 5.229598 14.550659 0.223275 -1.426135 17.794926 0.069990 -0.805201 9.934752 -0.000002 -0.000003 0.000003 0.314668 -3.835312 19.453637 0.223272 -1.426128 17.794958 0.069984 -0.805204 9.934765 0.000000 -0.000001 -0.000004 2.703314 -9.946671 21.118574 0.223723 -1.427508 17.812792 0.070000 -0.805264 9.935466 -0.000001 -0.000001 -0.000002 3.960651 -16.894478 24.893768 0.594457 -2.278647 29.239306 0.069983 -0.805207 9.934747 0.000001 -0.000001 0.000009 -18.714134 -2.645093 6.148531 65.969416 7.159494 7.355930 16.382699 -0.316642 1.622905 -27.407821 6.069097 -12.133811 -0.000001 0.000000 0.000000 -22.740377 -4.393894 7.055760 26.784870 -7.280528 3.571159 -0.230043 -4.431177 -1.191376 -4.416852 -0.000000 0.000000 0.000000 -0.000000 0.000000 
1.832211 87.649574 171.312378 -2.754086 8.779272 -6.611388 2.814460 -2.727325 4.445891 2.549814 -2.021372 1.821638 2.512611 -2.134809 1.776741 1.241863 -0.798425 0.532256 -5.762474 -3.844556 -1.999467 0.000000 -0.000000 -0.000000 2.240480 -7.880971 -11.464899 7.138878 -35.596566 -48.588289 0.000013 -22.055058 -0.000005 -36.274182 -9.030401 15.316173 -6.000711 -6.126816 4.616761 7.230355 21.960023 2.178866 -5.596078 12.091058 16.242871 -0.000001 -0.000000 0.000002 4.243224 17.490859 -25.349443 0.745289 2.861408 -29.192526 0.087708 1.011006 -9.916111 0.000003 -0.000002 -0.000001 2.890017 10.489004 -21.682941 0.280405 1.792433 -17.780850 0.087720 1.011072 -9.916822 0.000001 -0.000000 0.000005 0.422577 4.377977 -20.122328 0.279843 1.790694 -17.763041 0.087709 1.011003 -9.916089 0.000001 0.000002 0.000004 -2.034557 -4.751708 -15.395207 0.279842 1.790696 -17.763024 0.087706 1.010999 -9.916113 -0.000000 -0.000000 -0.000001 3.122653 -0.280820 13.524879 -1.244883 -0.112158 60.545467 0.000001 10.079492 -0.000003 0.326768 -0.142940 1.382871 -6.901940 8.181172 -4.018455 7.464519 -23.792674 -2.837973 -4.037342 -18.149547 -17.326561 -0.000000 -0.000002 -0.000001 -1.992637 5.229601 14.550651 0.223273 -1.426132 17.794929 0.069989 -0.805205 9.934750 -0.000000 0.000001 -0.000003 0.314667 -3.835312 19.453630 0.223270 -1.426129 17.794953 0.069984 -0.805205 9.934763 0.000000 0.000000 -0.000004 2.703315 -9.946669 21.118574 0.223723 -1.427510 17.812792 0.070000 -0.805265 9.935468 0.000001 0.000001 -0.000005 3.960653 -16.894480 24.893767 0.594458 -2.278650 29.239306 0.069986 -0.805206 9.934745 -0.000000 -0.000002 0.000005 -25.672002 -4.783905 3.006679 64.483604 6.941067 6.868145 14.300559 -0.694717 0.140639 -24.311288 3.890013 -9.169080 0.000002 -0.000001 -0.000000 -17.519254 -4.967954 6.087845 25.820458 -7.197080 4.174148 -5.081673 -2.393125 -1.537942 -4.469511 -0.000000 -0.000001 0.000000 0.000001 0.000000 
2.012844 88.948631 176.880402 -1.965104 7.522414 -5.341186 2.437326 -1.624435 3.900046 2.394446 -1.332481 1.127398 2.374142 -1.416265 1.096296 1.327196 -1.064073 0.613128 -5.348425 -4.995285 -1.359686 0.000000 0.000000 -0.000000 2.304616 -7.406866 -11.310683 8.670108 -32.620495 -50.971738 -0.000001 -19.828519 -0.000027 -35.851704 -0.640741 13.354503 -6.000711 -6.126813 4.616758 7.230355 21.960021 2.178870 -5.596077 12.091056 16.242864 -0.000001 0.000001 -0.000002 4.243223 17.490859 -25.349441 0.745289 2.861410 -29.192519 0.087706 1.011004 -9.916113 0.000000 -0.000000 -0.000001 2.890018 10.489009 -21.682941 0.280406 1.792430 -17.780850 0.087722 1.011072 -9.916822 -0.000000 0.000000 -0.000000 0.422577 4.377979 -20.122326 0.279844 1.790694 -17.763039 0.087708 1.011002 -9.916095 0.000001 0.000000 0.000004 -2.034555 -4.751702 -15.395204 0.279844 1.790688 -17.763027 0.087709 1.010996 -9.916110 -0.000000 0.000001 0.000001 2.930623 1.078635 12.913548 -1.312424 5.460901 59.131290 0.000008 13.879860 -0.000010 -5.534142 0.331285 -0.525703 -6.901943 8.181171 -4.018452 7.464519 -23.792674 -2.837969 -4.037341 -18.149546 -17.326559 -0.000001 -0.000001 0.000001 -1.992635 5.229602 14.550658 0.223276 -1.426130 17.794927 0.069992 -0.805203 9.934752 -0.000002 -0.000001 0.000001 0.314669 -3.835311 19.453630 0.223272 -1.426128 17.794955 0.069985 -0.805205 9.934765 0.000000 0.000000 -0.000008 2.703314 -9.946670 21.118576 0.223724 -1.427510 17.812794 0.070000 -0.805264 9.935460 -0.000000 0.000001 -0.000003 3.960652 -16.894480 24.893767 0.594459 -2.278646 29.239306 0.069984 -0.805207 9.934752 0.000000 -0.000002 0.000002 -31.204764 -5.272060 0.837198 59.953693 6.338582 6.426531 11.654885 -0.893487 -0.665941 -17.259272 1.892346 -6.524817 -0.000002 0.000001 0.000000 -12.583105 -5.661799 5.167281 24.287519 -5.880633 4.380922 -9.189545 -0.788207 -1.836066 -4.292289 0.000001 0.000002 0.000000 -0.000000 0.000000 
2.046594 90.020699 182.127716 -1.365153 5.453498 -3.952925 2.343465 -0.379948 3.228992 2.476008 -0.546861 0.424194 2.466394 -0.602983 0.413105 1.132170 -1.243792 0.568311 -5.473107 -5.824671 -0.811171 0.000000 -0.000000 -0.000000 2.429532 -6.413656 -11.257902 12.217702 -30.039332 -51.605242 0.000001 -20.558335 0.000001 -40.114428 7.724014 13.839055 -6.000708 -6.126815 4.616761 7.230353 21.960018 2.178871 -5.596075 12.091056 16.242868 0.000001 0.000002 0.000003 4.243223 17.490858 -25.349441 0.745289 2.861409 -29.192529 0.087710 1.011001 -9.916114 -0.000001 0.000001 -0.000000 2.890019 10.489007 -21.682941 0.280406 1.792430 -17.780850 0.087721 1.011072 -9.916817 -0.000001 0.000001 -0.000002 0.422580 4.377978 -20.122328 0.279845 1.790694 -17.763036 0.087708 1.011003 -9.916091 -0.000000 0.000000 0.000004 -2.034556 -4.751705 -15.395205 0.279845 1.790695 -17.763020 0.087708 1.011000 -9.916116 -0.000000 0.000001 0.000001 2.722369 2.783361 12.096170 -1.522724 10.767256 57.253887 0.000006 17.680409 0.000004 -11.260882 1.021886 -2.331950 -6.901939 8.181172 -4.018451 7.464519 -23.792670 -2.837969 -4.037341 -18.149549 -17.326556 -0.000001 -0.000000 -0.000002 -1.992636 5.229600 14.550659 0.223270 -1.426131 17.794931 0.069992 -0.805203 9.934755 -0.000000 0.000000 -0.000001 0.314668 -3.835309 19.453636 0.223270 -1.426131 17.794953 0.069986 -0.805204 9.934759 0.000001 0.000001 -0.000001 2.703315 -9.946669 21.118576 0.223722 -1.427510 17.812794 0.069999 -0.805265 9.935466 0.000000 -0.000001 -0.000003 3.960654 -16.894478 24.893772 0.594455 -2.278648 29.239312 0.069984 -0.805209 9.934748 -0.000001 -0.000003 0.000007 -34.308423 -4.376863 0.177659 52.395959 6.858079 5.888097 9.333414 -0.829448 0.530393 -7.697943 0.678903 -6.870833 -0.000001 -0.000000 0.000000 -8.047717 -6.483484 4.515027 22.201641 -3.229960 4.106971 -12.262979 -0.052683 -2.392601 -4.023558 0.000000 0.000000 0.000000 0.000000 -0.000000 
